<?xml version="1.0" encoding="UTF-8" standalone="no"?>
<!-- Created with Inkscape (http://www.inkscape.org/) -->

<svg
   xmlns:dc="http://purl.org/dc/elements/1.1/"
   xmlns:cc="http://creativecommons.org/ns#"
   xmlns:rdf="http://www.w3.org/1999/02/22-rdf-syntax-ns#"
   xmlns:svg="http://www.w3.org/2000/svg"
   xmlns="http://www.w3.org/2000/svg"
   xmlns:sodipodi="http://sodipodi.sourceforge.net/DTD/sodipodi-0.dtd"
   xmlns:inkscape="http://www.inkscape.org/namespaces/inkscape"
   width="400"
   height="400"
   id="svg2"
   version="1.1"
   inkscape:version="0.48.3.1 r9886"
   sodipodi:docname="logo.svg">
  <defs
     id="defs4" />
  <sodipodi:namedview
     id="base"
     pagecolor="#ffffff"
     bordercolor="#666666"
     borderopacity="1.0"
     inkscape:pageopacity="0.0"
     inkscape:pageshadow="2"
     inkscape:zoom="0.7"
     inkscape:cx="218.1059"
     inkscape:cy="211.22662"
     inkscape:document-units="px"
     inkscape:current-layer="layer1"
     showgrid="true"
     showguides="true"
     inkscape:guide-bbox="true"
     inkscape:window-width="1280"
     inkscape:window-height="699"
     inkscape:window-x="0"
     inkscape:window-y="31"
     inkscape:window-maximized="1">
    <inkscape:grid
       type="xygrid"
       id="grid3866"
       empspacing="5"
       visible="true"
       enabled="true"
       snapvisiblegridlinesonly="true" />
  </sodipodi:namedview>
  <metadata
     id="metadata7">
    <rdf:RDF>
      <cc:Work
         rdf:about="">
        <dc:format>image/svg+xml</dc:format>
        <dc:type
           rdf:resource="http://purl.org/dc/dcmitype/StillImage" />
        <dc:title></dc:title>
      </cc:Work>
    </rdf:RDF>
  </metadata>
  <g
     inkscape:label="Layer 1"
     inkscape:groupmode="layer"
     id="layer1"
     transform="translate(0,-652.36218)">
    <rect
       style="color:#000000;fill:#6d8999;fill-opacity:1;fill-rule:nonzero;stroke:none;stroke-width:17.28499984999999839;stroke-linecap:butt;stroke-linejoin:miter;stroke-miterlimit:4;stroke-opacity:1;stroke-dasharray:none;stroke-dashoffset:0;marker:none;visibility:visible;display:inline;overflow:visible;enable-background:accumulate"
       id="rect3954"
       width="400"
       height="400"
       x="0"
       y="5.6843419e-14"
       transform="translate(0,652.36218)" />
    <path
       style="fill:#486d82;stroke:none;stroke-width:1px;stroke-linecap:butt;stroke-linejoin:miter;stroke-opacity:1;fill-opacity:1"
       d="M 0,290 0,400 400,400 400,170 z"
       id="path3982"
       inkscape:connector-curvature="0"
       transform="translate(0,652.36218)" />
    <path
       style="font-size:123.46211243000000479px;font-style:normal;font-variant:normal;font-weight:bold;font-stretch:normal;text-indent:0;text-align:start;text-decoration:none;line-height:125%;letter-spacing:0px;word-spacing:0px;text-transform:none;direction:ltr;block-progression:tb;writing-mode:lr-tb;text-anchor:start;baseline-shift:baseline;opacity:0.2;color:#000000;fill:#6d8999;fill-opacity:1;fill-rule:nonzero;stroke:none;stroke-width:4;marker:none;visibility:visible;display:inline;overflow:visible;enable-background:accumulate;font-family:Arial;-inkscape-font-specification:Arial Bold"
       d="M 89.03125,1016.1434 86.875,1010.6434 55.15625,929.23718 42.59375,917.42468 36.28125,911.48718 42.21875,905.20593 134.125,807.20593 136.5625,804.61218 140.125,804.48718 168.40625,803.61218 177.0625,803.33093 177.3125,811.98718 178.1875,840.26843 178.3125,843.83093 175.84375,846.45593 96.96875,930.58093 116.125,930.58093 121.71875,916.01843 123.84375,910.48718 129.78125,910.48718 149.1875,910.48718 150,910.48718 161.96875,910.48718 192.21875,910.48718 C 199.35974,910.48718 205.36528,911.10465 210.625,912.76843 L 210.65625,912.76843 C 216.88754,914.76626 222.33348,917.71265 226.59375,921.86218 231.79322,926.9088 235.64962,933.38857 238.21875,940.86218 238.76145,942.44211 239.00803,944.21769 239.40625,945.89343 L 239.40625,919.11218 239.40625,910.48718 248.0625,910.48718 265.90625,910.48718 274.5625,910.48718 274.5625,919.11218 274.5625,948.04968 302.78125,948.04968 311.4375,948.04968 311.4375,956.67468 311.4375,971.61218 311.4375,980.2684 302.78125,980.2684 274.5625,980.2684 274.5625,983.9247 308.65625,983.9247 317.3125,983.9247 317.3125,992.5497 317.3125,1007.4872 317.3125,1016.1434 308.65625,1016.1434 248.0625,1016.1434 239.40625,1016.1434 239.40625,1007.4872 239.40625,981.2684 C 239.00321,982.9479 238.57003,984.5719 238.03125,986.1434 235.75437,992.8314 232.30643,998.7733 227.6875,1003.6434 222.98862,1008.5975 217.08323,1012.182 210.53125,1014.1122 L 210.5,1014.1122 C 205.22686,1015.65 199.07625,1016.1433 191.28125,1016.1434 L 158.65625,1016.1434 150,1016.1434 150,1007.4872 150,940.36218 121.84375,1010.7059 119.65625,1016.1434 113.8125,1016.1434 94.9375,1016.1434 z M 185.15625,983.8934 C 191.80566,983.8622 196.5358,983.4609 197.25,983.2997 L 197.28125,983.2684 197.3125,983.2684 C 199.38865,982.8181 200.59251,982.1254 201.5,981.2684 202.38219,980.4352 203.40704,978.9513 204.28125,976.29968 204.98537,974.16372 205.65619,969.55765 205.65625,963.23718 205.65619,956.91662 205.0275,952.21868 204.21875,949.54968 L 204.25,949.54968 C 203.32483,946.52758 202.18353,945.12035 202,944.95593 L 201.96875,944.92468 201.9375,944.89343 C 201.23313,944.24902 200.31349,943.71398 198.53125,943.26843 L 198.5,943.26843 198.5,943.23718 C 197.80781,943.06099 194.47096,942.67467 189.8125,942.67468 L 185.15625,942.67468 z"
       id="path3933-4"
       inkscape:connector-curvature="0"
       sodipodi:nodetypes="cccccccccccccccccccccccscccccccccccccccccccccccccccccccccccccccccccccccccccccccccccscc" />
    <rect
       style="color:#000000;fill:#ffffff;fill-opacity:1;stroke:#000000;stroke-width:4;stroke-linecap:butt;stroke-linejoin:miter;stroke-miterlimit:4;stroke-opacity:1;stroke-dasharray:none;stroke-dashoffset:0;marker:none;visibility:visible;display:inline;overflow:visible;enable-background:accumulate"
       id="rect3806"
       width="231.42856"
       height="37.142849"
       x="87.866814"
       y="850.74554"
       rx="8.5714283"
       ry="8.5714283" />
    <rect
       style="color:#000000;fill:#ffffff;fill-opacity:1;stroke:#000000;stroke-width:4;stroke-linecap:butt;stroke-linejoin:miter;stroke-miterlimit:4;stroke-opacity:1;stroke-dasharray:none;stroke-dashoffset:0;marker:none;visibility:visible;display:inline;overflow:visible;enable-background:accumulate"
       id="rect3806-8"
       width="231.42856"
       height="37.142849"
       x="87.866814"
       y="900.74554"
       rx="8.5714283"
       ry="8.5714283" />
    <rect
       style="color:#000000;fill:#000000;fill-opacity:1;stroke:#000000;stroke-width:5.5999999;stroke-linecap:butt;stroke-linejoin:miter;stroke-miterlimit:4;stroke-opacity:1;stroke-dasharray:none;stroke-dashoffset:0;marker:none;visibility:visible;display:inline;overflow:visible;enable-background:accumulate"
       id="rect3806-8-0"
       width="97.142822"
       height="37.142853"
       x="222.15251"
       y="950.74554"
       rx="8.5714283"
       ry="8.5714283" />
    <rect
       style="color:#000000;fill:#ffffff;fill-opacity:1;stroke:#000000;stroke-width:4;stroke-linecap:butt;stroke-linejoin:miter;stroke-miterlimit:4;stroke-opacity:1;stroke-dasharray:none;stroke-dashoffset:0;marker:none;visibility:visible;display:inline;overflow:visible;enable-background:accumulate"
       id="rect3806-1"
       width="231.42856"
       height="37.142849"
       x="87.85659"
       y="800.76038"
       rx="8.5714283"
       ry="8.5714283" />
    <g
       style="font-size:40px;font-style:normal;font-variant:normal;font-weight:normal;font-stretch:normal;line-height:125%;letter-spacing:0px;word-spacing:0px;fill:#ffffff;fill-opacity:1;stroke:none;font-family:Sawasdee;-inkscape-font-specification:Sawasdee"
       id="text3907"
       transform="translate(0,4)">
      <path
         d="M 237.98274,967.65143 240.73665,967.23151 C 240.85383,967.76536 241.09146,968.17226 241.44954,968.45221 241.80761,968.72565 242.30891,968.86237 242.95345,968.86237 243.66307,968.86237 244.19693,968.73216 244.55501,968.47174 244.79589,968.28945 244.91633,968.04531 244.91634,967.73932 244.91633,967.53099 244.85122,967.35846 244.72102,967.22174 244.5843,967.09154 244.27831,966.97109 243.80305,966.86041 241.58951,966.37214 240.18652,965.92617 239.59407,965.52252 238.77376,964.96263 238.3636,964.18464 238.3636,963.18854 238.3636,962.29011 238.71842,961.5349 239.42805,960.92291 240.13769,960.31094 241.23795,960.00495 242.72884,960.00494 244.1481,960.00495 245.20279,960.23607 245.8929,960.6983 246.58299,961.16055 247.05825,961.84415 247.31868,962.74908 L 244.73079,963.2276 C 244.6201,962.82396 244.40852,962.51472 244.09602,962.29987 243.79003,962.08503 243.35058,961.97761 242.77766,961.9776 242.055,961.97761 241.53743,962.07852 241.22493,962.28033 241.01659,962.42357 240.91243,962.60912 240.91243,962.83698 240.91243,963.0323 241.00357,963.19831 241.18587,963.33502 241.43326,963.51732 242.28612,963.77448 243.74446,964.10651 245.2093,964.43854 246.23143,964.84544 246.81087,965.32721 247.38377,965.8155 247.67023,966.49583 247.67024,967.36823 247.67023,968.31875 247.2731,969.1358 246.47884,969.8194 245.68456,970.50299 244.50943,970.84479 242.95345,970.84479 241.54068,970.84479 240.42089,970.55833 239.59407,969.98541 238.77376,969.4125 238.23665,968.6345 237.98274,967.65143"
         style="font-size:20px;font-weight:bold;fill:#ffffff;fill-opacity:1;font-family:Arial;-inkscape-font-specification:Arial Bold"
         id="path3940"
         inkscape:connector-curvature="0" />
      <path
         d="M 256.90852,970.61041 256.90852,969.05768 C 256.53091,969.61106 256.03287,970.04726 255.41438,970.36627 254.8024,970.68528 254.15461,970.84479 253.47102,970.84479 252.7744,970.84479 252.14941,970.69179 251.59602,970.3858 251.04264,970.07981 250.64225,969.65013 250.39485,969.09674 250.14745,968.54336 250.02376,967.77838 250.02376,966.80182 L 250.02376,960.23932 252.7679,960.23932 252.7679,965.00494 C 252.76789,966.46328 252.81672,967.35846 252.91438,967.69049 253.01855,968.01601 253.20409,968.27643 253.47102,968.47174 253.73795,968.66054 254.07649,968.75495 254.48665,968.75494 254.95539,968.75495 255.37531,968.62799 255.74641,968.37408 256.1175,968.11367 256.37141,967.79466 256.50813,967.41705 256.64484,967.03294 256.7132,966.0987 256.71321,964.61432 L 256.71321,960.23932 259.45735,960.23932 259.45735,970.61041 256.90852,970.61041"
         style="font-size:20px;font-weight:bold;fill:#ffffff;fill-opacity:1;font-family:Arial;-inkscape-font-specification:Arial Bold"
         id="path3942"
         inkscape:connector-curvature="0" />
      <path
         d="M 262.19173,970.61041 262.19173,956.29401 264.93587,956.29401 264.93587,961.45026 C 265.78222,960.48672 266.78482,960.00495 267.94368,960.00494 269.20669,960.00495 270.25161,960.46394 271.07845,961.3819 271.90526,962.29336 272.31867,963.60521 272.31868,965.31744 272.31867,967.08828 271.89549,968.45221 271.04915,969.40924 270.2093,970.36627 269.18716,970.84479 267.98274,970.84479 267.39029,970.84479 266.80435,970.6983 266.22493,970.40533 265.65201,970.10586 265.15722,969.6664 264.74055,969.08698 L 264.74055,970.61041 262.19173,970.61041 M 264.91634,965.20026 C 264.91633,966.27448 265.0856,967.06875 265.42415,967.58307 265.8994,968.31224 266.53091,968.67682 267.31868,968.67682 267.92414,968.67682 268.43846,968.41966 268.86165,967.90533 269.29133,967.3845 269.50617,966.56745 269.50618,965.45416 269.50617,964.26927 269.29133,963.41641 268.86165,962.89557 268.43195,962.36823 267.88182,962.10456 267.21126,962.10455 266.5537,962.10456 266.00683,962.36172 265.57063,962.87604 265.13443,963.38386 264.91633,964.1586 264.91634,965.20026"
         style="font-size:20px;font-weight:bold;fill:#ffffff;fill-opacity:1;font-family:Arial;-inkscape-font-specification:Arial Bold"
         id="path3944"
         inkscape:connector-curvature="0" />
      <path
         d="M 274.3304,960.23932 276.8597,960.23932 276.8597,961.65533 C 277.76464,960.55508 278.84211,960.00495 280.09212,960.00494 280.75617,960.00495 281.33234,960.14167 281.82063,960.4151 282.3089,960.68855 282.7093,961.10196 283.0218,961.65533 283.47752,961.10196 283.96906,960.68855 284.49641,960.4151 285.02375,960.14167 285.5869,960.00495 286.18587,960.00494 286.94757,960.00495 287.5921,960.1612 288.11946,960.47369 288.64679,960.77969 289.04067,961.23217 289.3011,961.83112 289.48989,962.27383 289.58429,962.98998 289.5843,963.97955 L 289.5843,970.61041 286.84016,970.61041 286.84016,964.68268 C 286.84015,963.65404 286.74575,962.98998 286.55696,962.69049 286.30304,962.29987 285.91242,962.10456 285.38509,962.10455 285.00096,962.10456 284.63963,962.22175 284.3011,962.45612 283.96255,962.6905 283.71841,963.03555 283.56868,963.49127 283.41893,963.9405 283.34406,964.65339 283.34407,965.62994 L 283.34407,970.61041 280.59993,970.61041 280.59993,964.92682 C 280.59992,963.91771 280.55109,963.26667 280.45345,962.97369 280.35578,962.68073 280.20279,962.46263 279.99446,962.3194 279.79263,962.17618 279.51594,962.10456 279.16438,962.10455 278.7412,962.10456 278.36034,962.21849 278.0218,962.44635 277.68326,962.67422 277.43912,963.003 277.28938,963.43268 277.14615,963.86237 277.07454,964.57526 277.07454,965.57135 L 277.07454,970.61041 274.3304,970.61041 274.3304,960.23932"
         style="font-size:20px;font-weight:bold;fill:#ffffff;fill-opacity:1;font-family:Arial;-inkscape-font-specification:Arial Bold"
         id="path3946"
         inkscape:connector-curvature="0" />
      <path
         d="M 292.30891,958.83307 292.30891,956.29401 295.05305,956.29401 295.05305,958.83307 292.30891,958.83307 M 292.30891,970.61041 292.30891,960.23932 295.05305,960.23932 295.05305,970.61041 292.30891,970.61041"
         style="font-size:20px;font-weight:bold;fill:#ffffff;fill-opacity:1;font-family:Arial;-inkscape-font-specification:Arial Bold"
         id="path3948"
         inkscape:connector-curvature="0" />
      <path
         d="M 302.61165,960.23932 302.61165,962.42682 300.73665,962.42682 300.73665,966.60651 C 300.73664,967.45286 300.75292,967.94765 300.78548,968.09088 300.82453,968.2276 300.90591,968.34153 301.02962,968.43268 301.15982,968.52383 301.31607,968.5694 301.49837,968.5694 301.75227,968.5694 302.12011,968.48151 302.60188,968.30573 L 302.83626,970.43463 C 302.19823,970.70807 301.47558,970.84479 300.66829,970.84479 300.17349,970.84479 299.72753,970.76341 299.3304,970.60065 298.93326,970.43138 298.64029,970.21653 298.45149,969.95612 298.2692,969.68919 298.14225,969.33112 298.07063,968.8819 298.01204,968.56289 297.98274,967.91836 297.98274,966.9483 L 297.98274,962.42682 296.72298,962.42682 296.72298,960.23932 297.98274,960.23932 297.98274,958.17877 300.73665,956.57721 300.73665,960.23932 302.61165,960.23932"
         style="font-size:20px;font-weight:bold;fill:#ffffff;fill-opacity:1;font-family:Arial;-inkscape-font-specification:Arial Bold"
         id="path3950"
         inkscape:connector-curvature="0" />
    </g>
    <path
       style="font-size:123.46211243px;font-style:normal;font-variant:normal;font-weight:bold;font-stretch:normal;text-indent:0;text-align:start;text-decoration:none;line-height:125%;letter-spacing:0px;word-spacing:0px;text-transform:none;direction:ltr;block-progression:tb;writing-mode:lr-tb;text-anchor:start;baseline-shift:baseline;color:#000000;fill:#000000;fill-opacity:1;fill-rule:nonzero;stroke:#ffffff;stroke-width:4;stroke-miterlimit:4;stroke-opacity:1;stroke-dasharray:none;marker:none;visibility:visible;display:inline;overflow:visible;enable-background:accumulate;font-family:Arial;-inkscape-font-specification:Arial Bold"
       d="M 91.375,720.75 89.21875,726.25 57.5,807.65625 44.9375,819.46875 38.625,825.40625 44.5625,831.6875 136.46875,929.6875 138.90625,932.28125 142.46875,932.40625 170.75,933.28125 179.40625,933.5625 179.65625,924.90625 180.53125,896.625 180.65625,893.0625 178.1875,890.4375 99.3125,806.3125 118.46875,806.3125 124.0625,820.875 126.1875,826.40625 132.125,826.40625 151.53125,826.40625 152.34375,826.40625 164.3125,826.40625 194.5625,826.40625 C 201.70349,826.40625 207.70903,825.78878 212.96875,824.125 L 213,824.125 C 219.23129,822.12717 224.67723,819.18078 228.9375,815.03125 234.13697,809.98463 237.99337,803.50486 240.5625,796.03125 241.1052,794.45132 241.35178,792.67574 241.75,791 L 241.75,817.78125 241.75,826.40625 250.40625,826.40625 268.25,826.40625 276.90625,826.40625 276.90625,817.78125 276.90625,788.84375 305.125,788.84375 313.78125,788.84375 313.78125,780.21875 313.78125,765.28125 313.78125,756.625 305.125,756.625 276.90625,756.625 276.90625,752.96875 311,752.96875 319.65625,752.96875 319.65625,744.34375 319.65625,729.40625 319.65625,720.75 311,720.75 250.40625,720.75 241.75,720.75 241.75,729.40625 241.75,755.625 C 241.34696,753.94553 240.91378,752.32151 240.375,750.75 238.09812,744.062 234.65018,738.12014 230.03125,733.25 225.33237,728.29594 219.42698,724.71141 212.875,722.78125 L 212.84375,722.78125 C 207.57061,721.24339 201.42,720.7501 193.625,720.75 L 161,720.75 152.34375,720.75 152.34375,729.40625 152.34375,796.53125 124.1875,726.1875 122,720.75 116.15625,720.75 97.28125,720.75 z M 187.5,753 C 194.14941,753.03122 198.87955,753.4325 199.59375,753.59375 L 199.625,753.625 199.65625,753.625 C 201.7324,754.0753 202.93626,754.76798 203.84375,755.625 204.72594,756.45823 205.75079,757.94214 206.625,760.59375 207.32912,762.72971 207.99994,767.33578 208,773.65625 207.99994,779.97681 207.37125,784.67475 206.5625,787.34375 L 206.59375,787.34375 C 205.66858,790.36585 204.52728,791.77308 204.34375,791.9375 L 204.3125,791.96875 204.28125,792 C 203.57688,792.64441 202.65724,793.17945 200.875,793.625 L 200.84375,793.625 200.84375,793.65625 C 200.15156,793.83244 196.81471,794.21876 192.15625,794.21875 L 187.5,794.21875 z"
       id="path3933"
       inkscape:connector-curvature="0"
       sodipodi:nodetypes="cccccccccccccccccccccccscccccccccccccccccccccccccccccccccccccccccccccccccccccccccccscc" />
  </g>
</svg>
